<svg width="303" height="68" viewBox="0 0 303 68" fill="none" xmlns="http://www.w3.org/2000/svg">
<g filter="url(#filter0_d)">
<path d="M25.7875 3H7.22244C5.44699 3 4.0127 4.50115 4.0127 6.35219V45.6522C4.0127 47.4974 5.44699 49 7.22244 49H25.7875C27.5601 49 29 47.4988 29 45.6522V6.35219C28.9986 4.50115 27.5601 3 25.7875 3ZM26.5923 40.2704H6.42036V8.65473H26.5923V40.2704ZM20.8092 6.40155H12.2021V5.42304H20.8106L20.8092 6.40155ZM24.4924 5.95439C24.4924 6.42768 24.122 6.81095 23.6694 6.81095C23.2155 6.81095 22.8465 6.42623 22.8465 5.95439C22.8465 5.48256 23.2155 5.09784 23.6694 5.09784C24.1234 5.09639 24.4924 5.48111 24.4924 5.95439ZM20.4235 45.4286H12.585V42.9141H20.4235V45.4286Z" fill="#4725A5"/>
<path d="M44.498 36.4756V49H37.1738V13.4531H51.041C53.7103 13.4531 56.054 13.9414 58.0723 14.918C60.1068 15.8945 61.6693 17.2861 62.7598 19.0928C63.8503 20.8831 64.3955 22.9258 64.3955 25.2207C64.3955 28.7038 63.1992 31.4544 60.8066 33.4727C58.4303 35.4746 55.1344 36.4756 50.9189 36.4756H44.498ZM44.498 30.543H51.041C52.9779 30.543 54.4508 30.0872 55.46 29.1758C56.4854 28.2643 56.998 26.9622 56.998 25.2695C56.998 23.528 56.4854 22.1201 55.46 21.0459C54.4346 19.9717 53.0186 19.4183 51.2119 19.3857H44.498V30.543ZM75.8701 25.4648C77.7419 23.2188 80.0938 22.0957 82.9258 22.0957C88.6549 22.0957 91.5602 25.4242 91.6416 32.0811V49H84.5859V32.2764C84.5859 30.7627 84.2604 29.6478 83.6094 28.9316C82.9583 28.1992 81.876 27.833 80.3623 27.833C78.2952 27.833 76.7979 28.6305 75.8701 30.2256V49H68.8145V11.5H75.8701V25.4648ZM95.8652 35.5479C95.8652 32.9274 96.3698 30.5918 97.3789 28.541C98.388 26.4902 99.8366 24.9033 101.725 23.7803C103.629 22.6572 105.834 22.0957 108.341 22.0957C111.905 22.0957 114.811 23.1862 117.057 25.3672C119.319 27.5482 120.58 30.5104 120.841 34.2539L120.89 36.0605C120.89 40.1133 119.758 43.3685 117.496 45.8262C115.234 48.2676 112.198 49.4883 108.39 49.4883C104.581 49.4883 101.537 48.2676 99.2588 45.8262C96.9964 43.3848 95.8652 40.0645 95.8652 35.8652V35.5479ZM102.921 36.0605C102.921 38.5671 103.393 40.4876 104.337 41.8223C105.281 43.1406 106.632 43.7998 108.39 43.7998C110.099 43.7998 111.433 43.1488 112.394 41.8467C113.354 40.5283 113.834 38.4287 113.834 35.5479C113.834 33.0902 113.354 31.1859 112.394 29.835C111.433 28.484 110.082 27.8086 108.341 27.8086C106.616 27.8086 105.281 28.484 104.337 29.835C103.393 31.1696 102.921 33.2448 102.921 36.0605ZM131.729 22.584L131.949 25.6357C133.837 23.2757 136.368 22.0957 139.542 22.0957C142.341 22.0957 144.425 22.9176 145.792 24.5615C147.159 26.2054 147.859 28.6631 147.892 31.9346V49H140.836V32.1055C140.836 30.6081 140.51 29.5257 139.859 28.8584C139.208 28.1748 138.126 27.833 136.612 27.833C134.627 27.833 133.137 28.6794 132.145 30.3721V49H125.089V22.584H131.729ZM165.421 49.4883C161.547 49.4883 158.39 48.3001 155.948 45.9238C153.523 43.5475 152.311 40.3818 152.311 36.4268V35.7432C152.311 33.0902 152.823 30.722 153.849 28.6387C154.874 26.5391 156.323 24.9277 158.194 23.8047C160.082 22.6654 162.231 22.0957 164.64 22.0957C168.253 22.0957 171.093 23.235 173.16 25.5137C175.243 27.7923 176.285 31.0231 176.285 35.2061V38.0869H159.464C159.692 39.8122 160.375 41.1956 161.515 42.2373C162.67 43.279 164.127 43.7998 165.885 43.7998C168.603 43.7998 170.727 42.8151 172.257 40.8457L175.724 44.7275C174.666 46.2249 173.233 47.3968 171.427 48.2432C169.62 49.0732 167.618 49.4883 165.421 49.4883ZM164.615 27.8086C163.215 27.8086 162.076 28.2806 161.197 29.2246C160.335 30.1686 159.781 31.5195 159.537 33.2773H169.352V32.7158C169.319 31.1533 168.896 29.9489 168.082 29.1025C167.268 28.2399 166.113 27.8086 164.615 27.8086ZM207.071 41.7002C207.071 40.8376 206.64 40.1621 205.777 39.6738C204.931 39.1693 203.564 38.7217 201.676 38.3311C195.393 37.0127 192.252 34.3434 192.252 30.3232C192.252 27.9795 193.22 26.0264 195.157 24.4639C197.11 22.8851 199.658 22.0957 202.799 22.0957C206.152 22.0957 208.829 22.8851 210.831 24.4639C212.849 26.0426 213.858 28.0934 213.858 30.6162H206.803C206.803 29.6071 206.477 28.777 205.826 28.126C205.175 27.4587 204.158 27.125 202.774 27.125C201.586 27.125 200.667 27.3936 200.016 27.9307C199.365 28.4678 199.039 29.1514 199.039 29.9814C199.039 30.7627 199.405 31.3975 200.138 31.8857C200.886 32.3577 202.14 32.7728 203.897 33.1309C205.655 33.4727 207.136 33.8633 208.341 34.3027C212.068 35.6699 213.932 38.0381 213.932 41.4072C213.932 43.8161 212.898 45.7692 210.831 47.2666C208.764 48.7477 206.095 49.4883 202.823 49.4883C200.61 49.4883 198.64 49.0977 196.915 48.3164C195.206 47.5189 193.863 46.4365 192.887 45.0693C191.91 43.6859 191.422 42.1966 191.422 40.6016H198.111C198.176 41.8548 198.64 42.8151 199.503 43.4824C200.366 44.1497 201.521 44.4834 202.97 44.4834C204.321 44.4834 205.338 44.2311 206.021 43.7266C206.721 43.2057 207.071 42.5303 207.071 41.7002ZM225.382 25.4648C227.254 23.2188 229.605 22.0957 232.438 22.0957C238.167 22.0957 241.072 25.4242 241.153 32.0811V49H234.098V32.2764C234.098 30.7627 233.772 29.6478 233.121 28.9316C232.47 28.1992 231.388 27.833 229.874 27.833C227.807 27.833 226.31 28.6305 225.382 30.2256V49H218.326V11.5H225.382V25.4648ZM245.377 35.5479C245.377 32.9274 245.882 30.5918 246.891 28.541C247.9 26.4902 249.348 24.9033 251.236 23.7803C253.141 22.6572 255.346 22.0957 257.853 22.0957C261.417 22.0957 264.322 23.1862 266.568 25.3672C268.831 27.5482 270.092 30.5104 270.353 34.2539L270.401 36.0605C270.401 40.1133 269.27 43.3685 267.008 45.8262C264.745 48.2676 261.71 49.4883 257.901 49.4883C254.093 49.4883 251.049 48.2676 248.771 45.8262C246.508 43.3848 245.377 40.0645 245.377 35.8652V35.5479ZM252.433 36.0605C252.433 38.5671 252.905 40.4876 253.849 41.8223C254.793 43.1406 256.144 43.7998 257.901 43.7998C259.61 43.7998 260.945 43.1488 261.905 41.8467C262.866 40.5283 263.346 38.4287 263.346 35.5479C263.346 33.0902 262.866 31.1859 261.905 29.835C260.945 28.484 259.594 27.8086 257.853 27.8086C256.127 27.8086 254.793 28.484 253.849 29.835C252.905 31.1696 252.433 33.2448 252.433 36.0605ZM298.526 36.0361C298.526 40.1051 297.599 43.3685 295.743 45.8262C293.904 48.2676 291.414 49.4883 288.272 49.4883C285.603 49.4883 283.447 48.5605 281.803 46.7051V59.1562H274.747V22.584H281.29L281.534 25.1719C283.243 23.1211 285.473 22.0957 288.224 22.0957C291.479 22.0957 294.01 23.3001 295.816 25.709C297.623 28.1178 298.526 31.4382 298.526 35.6699V36.0361ZM291.471 35.5234C291.471 33.0658 291.031 31.1696 290.152 29.835C289.29 28.5003 288.028 27.833 286.368 27.833C284.155 27.833 282.633 28.6794 281.803 30.3721V41.1875C282.665 42.929 284.203 43.7998 286.417 43.7998C289.786 43.7998 291.471 41.041 291.471 35.5234Z" fill="#4725A5"/>
</g>
<defs>
<filter id="filter0_d" x="-1" y="0" width="306" height="69" filterUnits="userSpaceOnUse" color-interpolation-filters="sRGB">
<feFlood flood-opacity="0" result="BackgroundImageFix"/>
<feColorMatrix in="SourceAlpha" type="matrix" values="0 0 0 0 0 0 0 0 0 0 0 0 0 0 0 0 0 0 127 0"/>
<feOffset dy="4"/>
<feGaussianBlur stdDeviation="2"/>
<feColorMatrix type="matrix" values="0 0 0 0 0 0 0 0 0 0 0 0 0 0 0 0 0 0 0.25 0"/>
<feBlend mode="normal" in2="BackgroundImageFix" result="effect1_dropShadow"/>
<feBlend mode="normal" in="SourceGraphic" in2="effect1_dropShadow" result="shape"/>
</filter>
</defs>
</svg>
